<svg width="271" height="266" viewBox="0 0 271 266" fill="none" xmlns="http://www.w3.org/2000/svg">
<path d="M170.955 168.581L99.7239 168.581L99.7239 97.3495L170.955 97.3495L170.955 168.581Z" fill="#949494" fill-opacity="0.6"/>
<path d="M239.943 -8.75707e-06L2.01438e-05 1.22194e-05L4.11203e-05 239.943L52.2363 187.707L52.2363 49.8619L190.081 49.8619L239.943 -8.75707e-06Z" fill="#949494" fill-opacity="0.6"/>
<path d="M84.3171 216.068L218.443 216.068L218.443 81.9427L270.679 29.7064L270.679 265.93L34.4552 265.93L84.3171 216.068Z" fill="#949494" fill-opacity="0.6"/>
<path d="M239.943 -8.75707e-06L2.01438e-05 1.22194e-05L4.11203e-05 239.943L52.2363 187.707L52.2363 49.8619L190.081 49.8619L239.943 -8.75707e-06Z" fill="#C89B3C"/>
</svg>
